<svg id="Layer_1" data-name="Layer 1" xmlns="http://www.w3.org/2000/svg" xmlns:xlink="http://www.w3.org/1999/xlink" viewBox="0 0 607.23 243.85"><defs><style>.cls-1{fill:none;}.cls-2{clip-path:url(#clip-path);}.cls-3{clip-path:url(#clip-path-2);}.cls-4{fill:url(#linear-gradient);}.cls-5{fill:#231f20;}</style><clipPath id="clip-path" transform="translate(-3.39 -274.76)"><path class="cls-1" d="M150,390.09c13.37,26.64-5.71,53.86-27.5,57.2h0c-23.12,3.56-43-15.8-31.17-40h0c13.53-27.65,38.53-13.53,30,3.53h0C113.74,426,94.42,422.3,94.42,422.3h0c40.7,20.19,61.21-36.89,24.56-47.36h0c-61.65-17.61-81.64,107.64,3.53,107.64h0c60.93,0,93.67-61.17,31.86-112.43h0c-25.31-21-17.67-45-9.8-58.73h0c-21.92,32.35-9.88,48.17,5.44,78.67"/></clipPath><clipPath id="clip-path-2" transform="translate(-3.39 -274.76)"><rect class="cls-1" x="25.14" y="291.59" width="204.63" height="210.18" transform="translate(-287.06 438.88) rotate(-78)"/></clipPath><linearGradient id="linear-gradient" x2="1" gradientTransform="matrix(173.71, 0, 0, -173.71, 41.23, 402.47)" gradientUnits="userSpaceOnUse"><stop offset="0" stop-color="#f15a29"/><stop offset="1" stop-color="#fbb040"/></linearGradient></defs><title>EMBERS Main_SVG</title><g class="cls-2"><g class="cls-3"><rect class="cls-4" x="25.14" y="291.59" width="204.63" height="210.18" transform="translate(-290.45 164.12) rotate(-78)"/></g></g><path class="cls-5" d="M270.84,420.59h-38.2a10.73,10.73,0,0,0,4.51,6.26,15.07,15.07,0,0,0,8.38,2.18,18.2,18.2,0,0,0,6.55-1.07,19.15,19.15,0,0,0,5.57-3.49l9.7,10.08q-7.67,8.54-22.4,8.53a35.73,35.73,0,0,1-16.19-3.49,26.52,26.52,0,0,1-.58-47.3,33.11,33.11,0,0,1,29.08-.25,24.64,24.64,0,0,1,10.13,9.41A27.56,27.56,0,0,1,271.13,416C271.13,416.17,271,417.68,270.84,420.59ZM236,404.31a11,11,0,0,0-3.63,6.59h21.52a11,11,0,0,0-3.63-6.59,11.68,11.68,0,0,0-14.26,0Z" transform="translate(-3.39 -274.76)"/><path class="cls-5" d="M366,394.61q5.77,5.82,5.77,17.55v30H353.33v-27q0-5.52-2.08-8.14a7.1,7.1,0,0,0-5.87-2.62,8.41,8.41,0,0,0-6.69,2.91q-2.52,2.91-2.52,8.82v26.08H317.76v-27q0-10.76-7.95-10.76a8.52,8.52,0,0,0-6.79,2.91q-2.52,2.91-2.52,8.82v26.08H282.08V389.67h17.55v5.52a18.43,18.43,0,0,1,6.93-4.79,23.43,23.43,0,0,1,8.77-1.6,23.07,23.07,0,0,1,9.89,2A16.82,16.82,0,0,1,332.3,397a20.27,20.27,0,0,1,7.85-6.11,25,25,0,0,1,10.37-2.13Q360.21,388.8,366,394.61Z" transform="translate(-3.39 -274.76)"/><path class="cls-5" d="M431.9,392.09a24,24,0,0,1,9.31,9.45,31.55,31.55,0,0,1,0,28.65,24.24,24.24,0,0,1-9.31,9.55,25.82,25.82,0,0,1-13,3.34q-10.38,0-15.52-6.1v5.23H385.81V370.28h18.42v23.94q5.32-5.42,14.64-5.42A26.2,26.2,0,0,1,431.9,392.09Zm-9,33q3.09-3.35,3.1-9.26t-3.1-9.11a11.23,11.23,0,0,0-15.9,0q-3.1,3.3-3.1,9.11t3.1,9.26a11.11,11.11,0,0,0,15.9,0Z" transform="translate(-3.39 -274.76)"/><path class="cls-5" d="M509,420.59H470.83a10.67,10.67,0,0,0,4.5,6.26,15.1,15.1,0,0,0,8.39,2.18,18.14,18.14,0,0,0,6.54-1.07,19.32,19.32,0,0,0,5.58-3.49l9.69,10.08q-7.66,8.54-22.39,8.53A35.7,35.7,0,0,1,467,439.59a25.69,25.69,0,0,1-14.64-23.75,25.9,25.9,0,0,1,14.06-23.55,33.11,33.11,0,0,1,29.08-.25,24.76,24.76,0,0,1,10.13,9.41A27.56,27.56,0,0,1,509.31,416C509.31,416.17,509.21,417.68,509,420.59Zm-34.85-16.28a10.86,10.86,0,0,0-3.63,6.59h21.52a10.92,10.92,0,0,0-3.64-6.59,11.66,11.66,0,0,0-14.25,0Z" transform="translate(-3.39 -274.76)"/><path class="cls-5" d="M545.13,390.59a27.72,27.72,0,0,1,10.33-1.79v16.57a38.76,38.76,0,0,0-4.17-.29q-5.92,0-9.26,3.2t-3.35,9.79v24.14H520.27V389.67h17.54V396A17.26,17.26,0,0,1,545.13,390.59Z" transform="translate(-3.39 -274.76)"/><path class="cls-5" d="M571.65,441.58a34.07,34.07,0,0,1-10.28-3.93l5.53-12.6a31,31,0,0,0,8.53,3.54,38.22,38.22,0,0,0,9.79,1.31q4.46,0,6.35-.92a2.88,2.88,0,0,0,1.89-2.67c0-1.16-.76-2-2.28-2.47a48.77,48.77,0,0,0-7.22-1.41,70.51,70.51,0,0,1-10.71-2,16.48,16.48,0,0,1-7.61-4.65q-3.21-3.4-3.2-9.5a14.39,14.39,0,0,1,3-9,19.93,19.93,0,0,1,8.77-6.21A37.81,37.81,0,0,1,588,388.8,55.53,55.53,0,0,1,599.37,390a32.45,32.45,0,0,1,9.4,3.29l-5.52,12.51a30.69,30.69,0,0,0-15.12-3.88,15,15,0,0,0-6.4,1q-2,1-2,2.67c0,1.22.74,2.08,2.23,2.57a52.33,52.33,0,0,0,7.37,1.5,81.73,81.73,0,0,1,10.76,2.23,16.46,16.46,0,0,1,7.42,4.6q3.15,3.34,3.15,9.36a14.26,14.26,0,0,1-3,8.87,19.48,19.48,0,0,1-8.87,6.15,39.66,39.66,0,0,1-14.1,2.23A56.65,56.65,0,0,1,571.65,441.58Z" transform="translate(-3.39 -274.76)"/></svg>